<svg xmlns="http://www.w3.org/2000/svg" viewBox="0 0 160 160"><defs><linearGradient id="a" x1="0" y1="0" x2="1" y2="1"><stop stop-color="#312e81"/><stop offset="1" stop-color="#9333ea"/></linearGradient><linearGradient id="b" x1="0" y1="0" x2="1" y2="1"><stop stop-color="#fb923c"/><stop offset="1" stop-color="#c2410c"/></linearGradient></defs><circle cx="80" cy="80" r="68" fill="url(#a)"/><rect x="30" y="70" width="100" height="59" rx="12" fill="url(#b)"/><path d="M61 70V59c0-7 5-12 12-12h14c7 0 12 5 12 12v11" fill="none" stroke="#fed7aa" stroke-width="7"/><rect x="46" y="34" width="54" height="70" rx="7" fill="#f8fafc" transform="rotate(-7 73 69)"/><circle cx="69" cy="55" r="8" fill="#a78bfa"/><path d="M55 71h31M55 80h25M55 89h29" stroke="#64748b" stroke-width="4" stroke-linecap="round"/><circle cx="113" cy="48" r="17" fill="#22c55e"/><path d="m105 48 6 6 11-14" fill="none" stroke="#fff" stroke-width="4"/></svg>